<svg width="17" height="18" fill="none" xmlns="http://www.w3.org/2000/svg">
    <path fill-rule="evenodd" clip-rule="evenodd"
        d="M11.384.018a.041.041 0 01.057-.01l1.278.895a.041.041 0 01.01.057L10.951 3.5c.864.277 1.454.575 1.454.575s-1.44 2.477-3.883 2.477-4.179-2.309-4.179-2.309.616-.393 1.528-.73L3.92 1.189a.041.041 0 01.005-.058L5.12.127a.041.041 0 01.058.005L7.65 3.077c.212-.024.427-.038.645-.038.312 0 .624.024.93.064l2.16-3.085zm.483 6.651c.652-.465 1.638-1.68 1.638-1.68s2.52 1.996 2.52 6.23c0 4.233-4.356 6.78-4.356 6.78s-2.081-2.1-2.592-4.765c-.511-2.664.755-5.622.755-5.622s1.383-.477 2.035-.943zm-7.02 0c-.652-.465-1.638-1.68-1.638-1.68s-2.52 1.996-2.52 6.23c0 4.233 4.356 6.78 4.356 6.78s2.08-2.1 2.592-4.765c.51-2.664-.756-5.622-.756-5.622S5.5 7.135 4.847 6.669z" />
</svg>